# xmcd CD Database Entry
#
# Track frame offsets:
# 150
# 20525
# 38139
# 58011
# 78038
# 99346
# 118975
# 134110
# 155186
# 174112
# 189307
# 207800
# 228240
# 248406
# 269543
# 289059
#
# Disc length: 4116 seconds
#
# Revision: 1
# Processed by: cddbd v1.4PL0 Copyright (c) Steve Scherf et al.
# Submitted via: tcd 2.0b
#
DISCID=d8101210
DTITLE=모름 - 모름
DYEAR=1900
DGENRE=
TTITLE0=1번 트랙
TTITLE1=2번 트랙
TTITLE2=3번 트랙
TTITLE3=4번 트랙
TTITLE4=5번 트랙
TTITLE5=6번 트랙
TTITLE6=7번 트랙
TTITLE7=8번 트랙
TTITLE8=9번 트랙
TTITLE9=10번 트랙
TTITLE10=11번 트랙
TTITLE11=12번 트랙
TTITLE12=13번 트랙
TTITLE13=14번 트랙
TTITLE14=15번 트랙
TTITLE15=16번 트랙
EXTD=
EXTT0=
EXTT1=
EXTT2=
EXTT3=
EXTT4=
EXTT5=
EXTT6=
EXTT7=
EXTT8=
EXTT9=
EXTT10=
EXTT11=
EXTT12=
EXTT13=
EXTT14=
EXTT15=
PLAYORDER=
